<svg xmlns="http://www.w3.org/2000/svg" viewBox="0 0 100 100">
  <defs>
    <linearGradient id="g" x1="0%" y1="0%" x2="100%" y2="100%">
      <stop offset="0%" style="stop-color:#22c55e"/>
      <stop offset="100%" style="stop-color:#16a34a"/>
    </linearGradient>
  </defs>
  <circle cx="50" cy="50" r="46" fill="#0f172a" stroke="url(#g)" stroke-width="4"/>
  <path d="M50 22 C35 22 25 35 25 48 C25 62 38 72 50 78 C62 72 75 62 75 48 C75 35 65 22 50 22Z" fill="url(#g)" opacity="0.9"/>
  <path d="M50 35 C44 40 40 46 42 52 C44 56 48 55 50 50 C52 55 56 56 58 52 C60 46 56 40 50 35Z" fill="#0f172a" opacity="0.6"/>
  <circle cx="50" cy="60" r="3" fill="#bbf7d0"/>
</svg>
